<svg width="184" height="21" viewBox="0 0 184 21" fill="none" xmlns="http://www.w3.org/2000/svg">
<g clip-path="url(#clip0_2528_157659)">
<path d="M7.84777 20.068H6.35977C4.63177 20.068 3.27977 19.588 2.30377 18.628C1.34377 17.668 0.86377 16.324 0.86377 14.596V7.54003C0.86377 5.81203 1.34377 4.46803 2.30377 3.50803C3.26377 2.54803 4.60777 2.06803 6.33577 2.06803H7.84777V4.22803H6.33577C5.21577 4.22803 4.38377 4.50003 3.83977 5.04403C3.29577 5.57203 3.02377 6.40403 3.02377 7.54003V14.596C3.02377 15.716 3.29577 16.548 3.83977 17.092C4.38377 17.636 5.22377 17.908 6.35977 17.908H7.84777V20.068ZM14.8558 20.068H13.3678C11.6398 20.068 10.2878 19.588 9.31177 18.628C8.35177 17.668 7.87177 16.324 7.87177 14.596V7.54003C7.87177 5.81203 8.35177 4.46803 9.31177 3.50803C10.2718 2.54803 11.6158 2.06803 13.3438 2.06803H14.8558V4.22803H13.3438C12.2238 4.22803 11.3918 4.50003 10.8478 5.04403C10.3038 5.57203 10.0318 6.40403 10.0318 7.54003V14.596C10.0318 15.716 10.3038 16.548 10.8478 17.092C11.3918 17.636 12.2318 17.908 13.3678 17.908H14.8558V20.068ZM19.6558 1.10803V20.068H17.5198V11.428H13.4638V9.31603H17.5198V1.10803H19.6558ZM36.4779 20.068H29.0379C27.3099 20.068 25.9659 19.588 25.0059 18.628C24.0459 17.668 23.5659 16.324 23.5659 14.596V8.78803H32.3739C33.1259 8.78803 33.7099 8.56403 34.1259 8.11603C34.5419 7.65203 34.7499 7.10803 34.7499 6.48403C34.7499 5.87603 34.5419 5.34803 34.1259 4.90003C33.7099 4.43603 33.1259 4.20403 32.3739 4.20403H23.9499V2.04403H32.3739C33.3339 2.04403 34.1499 2.26003 34.8219 2.69203C35.5099 3.10803 36.0219 3.65203 36.3579 4.32403C36.7099 4.99603 36.8859 5.71603 36.8859 6.48403C36.8859 7.25203 36.7099 7.98003 36.3579 8.66803C36.0219 9.34003 35.5099 9.89203 34.8219 10.324C34.1499 10.74 33.3339 10.948 32.3739 10.948H25.7259V14.596C25.7259 15.716 25.9979 16.548 26.5419 17.092C27.0859 17.636 27.9179 17.908 29.0379 17.908H36.4779V20.068ZM41.7339 1.10803V20.068H39.5979V1.10803H41.7339ZM63.5481 20.092H50.4201C47.5721 20.092 46.1481 19.004 46.1481 16.828V14.572H60.3561C60.6921 14.572 60.9481 14.516 61.1241 14.404C61.3161 14.292 61.4121 14.164 61.4121 14.02C61.4121 13.86 61.3161 13.732 61.1241 13.636C60.9481 13.524 60.6921 13.468 60.3561 13.468H46.1481V11.308H60.3561C61.3641 11.308 62.1481 11.58 62.7081 12.124C63.2681 12.652 63.5481 13.284 63.5481 14.02C63.5481 14.756 63.2681 15.396 62.7081 15.94C62.1481 16.468 61.3641 16.732 60.3561 16.732H48.3081V16.828C48.3081 17.26 48.4441 17.548 48.7161 17.692C49.0041 17.852 49.5721 17.932 50.4201 17.932H63.5481V20.092ZM48.3081 4.68403C48.3081 4.89203 48.3321 5.02803 48.3801 5.09203C48.4441 5.14003 48.5801 5.16403 48.7881 5.16403H60.9081C61.1161 5.16403 61.2441 5.14003 61.2921 5.09203C61.3561 5.02803 61.3881 4.89203 61.3881 4.68403V3.26803H48.3081V4.68403ZM63.5481 1.10803V4.68403C63.5481 5.48403 63.3081 6.12403 62.8281 6.60403C62.3481 7.08403 61.7081 7.32403 60.9081 7.32403H55.8921V8.33203H64.0281V10.492H45.6441V8.33203H53.7561V7.32403H48.7881C47.9881 7.32403 47.3481 7.08403 46.8681 6.60403C46.3881 6.12403 46.1481 5.48403 46.1481 4.68403V1.10803H63.5481ZM74.2421 12.556V16.348C74.2421 16.876 74.3941 17.268 74.6981 17.524C75.0181 17.796 75.5701 17.932 76.3541 17.932H89.4821V20.092H76.3541C74.8981 20.092 73.8181 19.74 73.1141 19.036C72.4261 18.332 72.0821 17.436 72.0821 16.348V12.556H74.2421ZM84.2501 3.98803H71.3381V1.82803H84.2501V3.98803ZM84.2501 11.308H71.3381V9.14803H73.8341V4.94803H75.9941V9.14803H79.5941V4.94803H81.7541V9.14803H84.2501V11.308ZM89.5061 1.10803V5.23603H92.0741V7.34803H89.5061V14.308H87.3701V1.10803H89.5061ZM95.8402 17.452C95.8402 17.66 95.8642 17.788 95.9122 17.836C95.9762 17.9 96.1122 17.932 96.3202 17.932H102.008C102.216 17.932 102.344 17.9 102.392 17.836C102.456 17.772 102.488 17.644 102.488 17.452V4.22803H95.8402V17.452ZM104.648 2.06803V17.452C104.648 18.252 104.408 18.892 103.928 19.372C103.448 19.852 102.808 20.092 102.008 20.092H96.3202C95.5202 20.092 94.8802 19.852 94.4002 19.372C93.9202 18.892 93.6802 18.252 93.6802 17.452V2.06803H104.648ZM109.184 1.10803V8.83603H111.08V1.10803H113.216V20.068H111.08V10.948H109.184V20.068H107.048V1.10803H109.184ZM128.407 4.22803H123.031V12.58C123.031 14.34 123.463 15.66 124.327 16.54C125.191 17.404 126.551 17.836 128.407 17.836V19.996C126.871 19.996 125.559 19.732 124.471 19.204C123.383 18.692 122.543 17.948 121.951 16.972C121.359 17.948 120.519 18.692 119.431 19.204C118.359 19.732 117.047 19.996 115.495 19.996V17.836C117.351 17.836 118.711 17.404 119.575 16.54C120.439 15.66 120.871 14.34 120.871 12.58V4.22803H115.495V2.06803H128.407V4.22803ZM133.663 1.10803V8.83603H136.231V10.948H133.663V20.068H131.527V1.10803H133.663ZM146.961 12.556V16.348C146.961 16.876 147.113 17.268 147.417 17.524C147.737 17.796 148.289 17.932 149.073 17.932H162.201V20.092H149.073C147.617 20.092 146.537 19.74 145.833 19.036C145.145 18.332 144.801 17.436 144.801 16.348V12.556H146.961ZM142.617 8.81203C144.265 8.81203 145.465 8.50803 146.217 7.90003C146.985 7.29203 147.369 6.38803 147.369 5.18803V2.06803H149.529V5.18803C149.529 6.38803 149.905 7.29203 150.657 7.90003C151.409 8.50803 152.609 8.81203 154.257 8.81203V10.972C152.897 10.972 151.729 10.78 150.753 10.396C149.777 10.012 149.009 9.45203 148.449 8.71603C147.297 10.22 145.353 10.972 142.617 10.972V8.81203ZM158.145 1.10803V14.068H156.009V5.90803H153.033V3.79603H156.009V1.10803H158.145ZM162.177 1.10803V14.068H160.041V1.10803H162.177ZM178.088 20.068H170.624C168.896 20.068 167.544 19.588 166.568 18.628C165.608 17.668 165.128 16.324 165.128 14.596V7.54003C165.128 5.81203 165.608 4.46803 166.568 3.50803C167.528 2.54803 168.872 2.06803 170.6 2.06803H178.088V4.22803H170.6C169.48 4.22803 168.648 4.50003 168.104 5.04403C167.56 5.57203 167.288 6.40403 167.288 7.54003V10.036H176.888V12.196H167.288V14.596C167.288 15.716 167.56 16.548 168.104 17.092C168.648 17.636 169.488 17.908 170.624 17.908H178.088V20.068ZM183.344 1.10803V20.068H181.208V10.948H178.352V8.83603H181.208V1.10803H183.344Z" fill="black"/>
</g>
<defs>
<clipPath id="clip0_2528_157659">
<rect width="184" height="20" fill="white" transform="translate(0 0.5)"/>
</clipPath>
</defs>
</svg>
